#Comment line ignore any data following # character 
#Hierarchical Translation and Rotation (.htr) file 
[Header]	
#Header keywords are followed by a single value 
FileType HTR		#Single word string
DataType HTRS		#Translation followed by rotation and scale data
FileVersion 1		#integer
NumSegments 84		#integer
NumFrames 2		#integer
DataFrameRate 30		#integer, data frame rate in this file
EulerRotationOrder ZYX
CalibrationUnits mm
RotationUnits Degrees
GlobalAxisofGravity Y
BoneLengthAxis Y
ScaleFactor 1.00
[SegmentNames&Hierarchy]
#CHILD	PARENT
MASTER GLOBAL
root MASTER
chest root
L_mid_tent01 root
R_mid_tent01 root
spine01 root
Bip01_Neck chest
L_humerus chest
R_humerus chest
weapon_bone chest
Bip01_Head Bip01_Neck
eye_left_bone Bip01_Head
eye_right_bone Bip01_Head
L_forearm L_humerus
L_front_hand L_forearm
L_weapon_bone L_forearm
L_front_hand01_01 L_front_hand
L_front_hand02_01 L_front_hand
L_front_hand03_01 L_front_hand
L_front_hand01_02 L_front_hand01_01
L_front_hand02_02 L_front_hand02_01
L_front_hand03_02 L_front_hand03_01
R_forearm R_humerus
R_front_hand R_forearm
R_weapon_bone R_forearm
R_front_hand01_01 R_front_hand
R_front_hand02_01 R_front_hand
R_front_hand03_01 R_front_hand
R_front_hand01_02 R_front_hand01_01
R_front_hand02_02 R_front_hand02_01
R_front_hand03_02 R_front_hand03_01
null_rope01_connect L_mid_tent01
Rope1_Seg01 null_rope01_connect
Rope1_Seg02 Rope1_Seg01
Rope1_Seg03 Rope1_Seg02
Rope1_Seg04 Rope1_Seg03
Rope1_Seg05 Rope1_Seg04
Rope1_Seg06 Rope1_Seg05
Rope1_Seg07 Rope1_Seg06
Rope1_Seg09 Rope1_Seg07
L_mid_hand01 Rope1_Seg09
L_mid_hand02 Rope1_Seg09
L_mid_hand03 Rope1_Seg09
null_rope02_connect R_mid_tent01
Rope2_Seg01 null_rope02_connect
Rope2_Seg02 Rope2_Seg01
Rope2_Seg03 Rope2_Seg02
Rope2_Seg04 Rope2_Seg03
Rope2_Seg05 Rope2_Seg04
Rope2_Seg06 Rope2_Seg05
Rope2_Seg07 Rope2_Seg06
Rope2_Seg09 Rope2_Seg07
R_mid_hand01 Rope2_Seg09
R_mid_hand02 Rope2_Seg09
R_mid_hand03 Rope2_Seg09
spine02 spine01
spine03 spine02
pelvis spine03
null_rope03_connect pelvis
null_rope04_connect pelvis
Rope3_Seg01 null_rope03_connect
Rope3_Seg02 Rope3_Seg01
Rope3_Seg03 Rope3_Seg02
Rope3_Seg04 Rope3_Seg03
Rope3_Seg05 Rope3_Seg04
Rope3_Seg06 Rope3_Seg05
Rope3_Seg07 Rope3_Seg06
Rope3_Seg08 Rope3_Seg07
Rope3_Seg09 Rope3_Seg08
R_rear_hand01 Rope3_Seg09
R_rear_hand02 Rope3_Seg09
R_rear_hand03 Rope3_Seg09
Rope4_Seg01 null_rope04_connect
Rope4_Seg02 Rope4_Seg01
Rope4_Seg03 Rope4_Seg02
Rope4_Seg04 Rope4_Seg03
Rope4_Seg05 Rope4_Seg04
Rope4_Seg06 Rope4_Seg05
Rope4_Seg07 Rope4_Seg06
Rope4_Seg08 Rope4_Seg07
Rope4_Seg09 Rope4_Seg08
L_rear_hand01 Rope4_Seg09
L_rear_hand02 Rope4_Seg09
L_rear_hand03 Rope4_Seg09
[BasePosition]
#SegmentName Tx, Ty, Tz, Rx, Ry, Rz, BoneLength
MASTER 0.000000 0.000000 0.000000 -90.000000 0.000000 0.000000 10.000000 
root 0.000000 0.000000 0.000000 0.000000 0.000000 0.000000 10.000000 
chest 0.000000 0.000000 0.000000 0.000000 0.000000 0.000000 10.000000 
L_mid_tent01 0.000000 0.000000 0.000000 0.000000 0.000000 0.000000 10.000000 
R_mid_tent01 0.000000 0.000000 0.000000 0.000000 0.000000 0.000000 10.000000 
spine01 0.000000 0.000000 0.000000 0.000000 0.000000 0.000000 10.000000 
Bip01_Neck 0.000000 0.000000 0.000000 0.000000 0.000000 0.000000 10.000000 
L_humerus 0.000000 0.000000 0.000000 0.000000 0.000000 0.000000 10.000000 
R_humerus 0.000000 0.000000 0.000000 0.000000 0.000000 0.000000 10.000000 
weapon_bone 0.000000 0.000000 0.000000 0.000000 0.000000 0.000000 10.000000 
Bip01_Head 0.000000 0.000000 0.000000 0.000000 0.000000 0.000000 10.000000 
eye_left_bone 0.000000 0.000000 0.000000 0.000000 0.000000 0.000000 10.000000 
eye_right_bone 0.000000 0.000000 0.000000 0.000000 0.000000 0.000000 10.000000 
L_forearm 0.000000 0.000000 0.000000 0.000000 0.000000 0.000000 10.000000 
L_front_hand 0.000000 0.000000 0.000000 0.000000 0.000000 0.000000 10.000000 
L_weapon_bone 0.000000 0.000000 0.000000 0.000000 0.000000 0.000000 10.000000 
L_front_hand01_01 0.000000 0.000000 0.000000 0.000000 0.000000 0.000000 10.000000 
L_front_hand02_01 0.000000 0.000000 0.000000 0.000000 0.000000 0.000000 10.000000 
L_front_hand03_01 0.000000 0.000000 0.000000 0.000000 0.000000 0.000000 10.000000 
L_front_hand01_02 0.000000 0.000000 0.000000 0.000000 0.000000 0.000000 10.000000 
L_front_hand02_02 0.000000 0.000000 0.000000 0.000000 0.000000 0.000000 10.000000 
L_front_hand03_02 0.000000 0.000000 0.000000 0.000000 0.000000 0.000000 10.000000 
R_forearm 0.000000 0.000000 0.000000 0.000000 0.000000 0.000000 10.000000 
R_front_hand 0.000000 0.000000 0.000000 0.000000 0.000000 0.000000 10.000000 
R_weapon_bone 0.000000 0.000000 0.000000 0.000000 0.000000 0.000000 10.000000 
R_front_hand01_01 0.000000 0.000000 0.000000 0.000000 0.000000 0.000000 10.000000 
R_front_hand02_01 0.000000 0.000000 0.000000 0.000000 0.000000 0.000000 10.000000 
R_front_hand03_01 0.000000 0.000000 0.000000 0.000000 0.000000 0.000000 10.000000 
R_front_hand01_02 0.000000 0.000000 0.000000 0.000000 0.000000 0.000000 10.000000 
R_front_hand02_02 0.000000 0.000000 0.000000 0.000000 0.000000 0.000000 10.000000 
R_front_hand03_02 0.000000 0.000000 0.000000 0.000000 0.000000 0.000000 10.000000 
null_rope01_connect 0.000000 0.000000 0.000000 0.000000 0.000000 0.000000 10.000000 
Rope1_Seg01 0.000000 0.000000 0.000000 0.000000 0.000000 0.000000 10.000000 
Rope1_Seg02 0.000000 0.000000 0.000000 0.000000 0.000000 0.000000 10.000000 
Rope1_Seg03 0.000000 0.000000 0.000000 0.000000 0.000000 0.000000 10.000000 
Rope1_Seg04 0.000000 0.000000 0.000000 0.000000 0.000000 0.000000 10.000000 
Rope1_Seg05 0.000000 0.000000 0.000000 0.000000 0.000000 0.000000 10.000000 
Rope1_Seg06 0.000000 0.000000 0.000000 0.000000 0.000000 0.000000 10.000000 
Rope1_Seg07 0.000000 0.000000 0.000000 0.000000 0.000000 0.000000 10.000000 
Rope1_Seg09 0.000000 0.000000 0.000000 0.000000 0.000000 0.000000 10.000000 
L_mid_hand01 0.000000 0.000000 0.000000 0.000000 0.000000 0.000000 10.000000 
L_mid_hand02 0.000000 0.000000 0.000000 0.000000 0.000000 0.000000 10.000000 
L_mid_hand03 0.000000 0.000000 0.000000 0.000000 0.000000 0.000000 10.000000 
null_rope02_connect 0.000000 0.000000 0.000000 0.000000 0.000000 0.000000 10.000000 
Rope2_Seg01 0.000000 0.000000 0.000000 0.000000 0.000000 0.000000 10.000000 
Rope2_Seg02 0.000000 0.000000 0.000000 0.000000 0.000000 0.000000 10.000000 
Rope2_Seg03 0.000000 0.000000 0.000000 0.000000 0.000000 0.000000 10.000000 
Rope2_Seg04 0.000000 0.000000 0.000000 0.000000 0.000000 0.000000 10.000000 
Rope2_Seg05 0.000000 0.000000 0.000000 0.000000 0.000000 0.000000 10.000000 
Rope2_Seg06 0.000000 0.000000 0.000000 0.000000 0.000000 0.000000 10.000000 
Rope2_Seg07 0.000000 0.000000 0.000000 0.000000 0.000000 0.000000 10.000000 
Rope2_Seg09 0.000000 0.000000 0.000000 0.000000 0.000000 0.000000 10.000000 
R_mid_hand01 0.000000 0.000000 0.000000 0.000000 0.000000 0.000000 10.000000 
R_mid_hand02 0.000000 0.000000 0.000000 0.000000 0.000000 0.000000 10.000000 
R_mid_hand03 0.000000 0.000000 0.000000 0.000000 0.000000 0.000000 10.000000 
spine02 0.000000 0.000000 0.000000 0.000000 0.000000 0.000000 10.000000 
spine03 0.000000 0.000000 0.000000 0.000000 0.000000 0.000000 10.000000 
pelvis 0.000000 0.000000 0.000000 0.000000 0.000000 0.000000 10.000000 
null_rope03_connect 0.000000 0.000000 0.000000 0.000000 0.000000 0.000000 10.000000 
null_rope04_connect 0.000000 0.000000 0.000000 0.000000 0.000000 0.000000 10.000000 
Rope3_Seg01 0.000000 0.000000 0.000000 0.000000 0.000000 0.000000 10.000000 
Rope3_Seg02 0.000000 0.000000 0.000000 0.000000 0.000000 0.000000 10.000000 
Rope3_Seg03 0.000000 0.000000 0.000000 0.000000 0.000000 0.000000 10.000000 
Rope3_Seg04 0.000000 0.000000 0.000000 0.000000 0.000000 0.000000 10.000000 
Rope3_Seg05 0.000000 0.000000 0.000000 0.000000 0.000000 0.000000 10.000000 
Rope3_Seg06 0.000000 0.000000 0.000000 0.000000 0.000000 0.000000 10.000000 
Rope3_Seg07 0.000000 0.000000 0.000000 0.000000 0.000000 0.000000 10.000000 
Rope3_Seg08 0.000000 0.000000 0.000000 0.000000 0.000000 0.000000 10.000000 
Rope3_Seg09 0.000000 0.000000 0.000000 0.000000 0.000000 0.000000 10.000000 
R_rear_hand01 0.000000 0.000000 0.000000 0.000000 0.000000 0.000000 10.000000 
R_rear_hand02 0.000000 0.000000 0.000000 0.000000 0.000000 0.000000 10.000000 
R_rear_hand03 0.000000 0.000000 0.000000 0.000000 0.000000 0.000000 10.000000 
Rope4_Seg01 0.000000 0.000000 0.000000 0.000000 0.000000 0.000000 10.000000 
Rope4_Seg02 0.000000 0.000000 0.000000 0.000000 0.000000 0.000000 10.000000 
Rope4_Seg03 0.000000 0.000000 0.000000 0.000000 0.000000 0.000000 10.000000 
Rope4_Seg04 0.000000 0.000000 0.000000 0.000000 0.000000 0.000000 10.000000 
Rope4_Seg05 0.000000 0.000000 0.000000 0.000000 0.000000 0.000000 10.000000 
Rope4_Seg06 0.000000 0.000000 0.000000 0.000000 0.000000 0.000000 10.000000 
Rope4_Seg07 0.000000 0.000000 0.000000 0.000000 0.000000 0.000000 10.000000 
Rope4_Seg08 0.000000 0.000000 0.000000 0.000000 0.000000 0.000000 10.000000 
Rope4_Seg09 0.000000 0.000000 0.000000 0.000000 0.000000 0.000000 10.000000 
L_rear_hand01 0.000000 0.000000 0.000000 0.000000 0.000000 0.000000 10.000000 
L_rear_hand02 0.000000 0.000000 0.000000 0.000000 0.000000 0.000000 10.000000 
L_rear_hand03 0.000000 0.000000 0.000000 0.000000 0.000000 0.000000 10.000000 
#Beginning of Data. Separated by tabs
#Fr	Tx	Ty	Tz	Rx	Ry	Rz	SF
[MASTER]
13 1058.421875 -2404.138184 1869.268311 0.000000 -0.002347 -89.999992 3224.019287
14 1047.428345 -2584.924805 1797.825195 0.000000 -0.002347 -90.000000 3318.300537
[root]
13 -88.172615 -38.662388 306.443848 -167.984604 -9.592748 -170.173462 321.211792
14 -104.648872 -35.540062 391.823090 -168.583954 -8.572990 -175.305649 407.111542
[chest]
13 -84.512650 -34.090519 0.000000 -47.058121 -19.813599 -154.051071 91.129311
14 -84.512650 -34.090519 0.000000 -51.346104 -20.277044 -151.695816 91.129311
[L_mid_tent01]
13 27.299196 22.179192 -249.918701 -1.822787 23.037270 67.364182 252.381699
14 27.299202 22.179195 -249.918716 -1.786712 23.376768 67.377823 252.381714
[R_mid_tent01]
13 23.228794 24.509907 226.238495 171.080429 -15.905301 58.684372 228.744751
14 23.228794 24.509907 226.238495 170.012604 -11.271330 59.208351 228.744751
[spine01]
13 -0.361383 -0.195265 0.000000 0.001956 0.001298 22.883831 0.410763
14 -0.361383 -0.195265 0.000000 0.001956 0.001297 22.900654 0.410763
[Bip01_Neck]
13 165.484543 71.581718 0.000119 176.643677 -1.657967 43.431911 180.302734
14 165.484543 71.581718 0.000119 176.643677 -1.657967 43.431911 180.302734
[L_humerus]
13 -13.983130 -135.272980 -120.471481 108.843880 82.467148 -160.494781 181.680161
14 -13.983130 -135.272980 -120.471481 138.211807 78.224915 -130.763214 181.680161
[R_humerus]
13 -13.983309 -135.273102 125.287651 -174.828415 -45.404907 -89.598747 184.909012
14 -13.983309 -135.273102 125.287651 -175.891998 -31.591520 -88.083405 184.909012
[weapon_bone]
13 235.964890 -300.705902 0.000000 0.000000 -89.951546 -128.212341 382.234833
14 235.964890 -300.705902 0.000000 0.000000 -89.951546 -128.212341 382.234833
[Bip01_Head]
13 213.436752 185.736664 11.504218 18.103081 3.154473 -43.861118 283.170807
14 213.381210 185.891357 9.507170 18.181017 4.644315 -43.845860 283.156372
[eye_left_bone]
13 -24.626970 125.451866 -64.772606 0.000000 -90.000000 -99.840431 143.318359
14 -24.626970 125.451866 -64.772606 0.000000 -90.000000 -99.840431 143.318359
[eye_right_bone]
13 -24.626970 125.451866 64.327362 0.000000 -89.965736 80.156380 143.117676
14 -24.626970 125.451866 64.327362 0.000000 -89.965736 80.156380 143.117676
[L_forearm]
13 322.776093 0.000000 -0.000119 0.000430 -0.002307 -111.131783 322.776093
14 322.776093 0.000000 -0.000119 0.000431 -0.002307 -111.173744 322.776093
[L_front_hand]
13 241.149185 -0.042021 -3.300071 -178.667953 -1.835447 -27.422342 241.171753
14 241.149185 -0.042021 -3.300071 -178.667953 -1.835447 -27.422342 241.171753
[L_weapon_bone]
13 156.183838 0.000000 0.000000 0.000014 0.000007 0.000001 156.183838
14 156.183838 0.000000 0.000000 0.000014 0.000007 0.000001 156.183838
[L_front_hand01_01]
13 86.095154 20.947098 -0.655860 -0.281026 -0.528937 65.755089 88.609184
14 86.095154 20.947098 -0.655860 -0.289102 -0.524108 66.611069 88.609184
[L_front_hand02_01]
13 86.935165 -11.437475 24.513514 141.611877 -54.742973 -46.215725 91.046425
14 86.935165 -11.437475 24.513514 142.580505 -55.268982 -47.395367 91.046425
[L_front_hand03_01]
13 86.637497 -14.123976 -20.424902 -141.973572 52.970398 -48.259937 90.126129
14 86.637497 -14.123976 -20.424902 -142.879883 53.494282 -49.391994 90.126129
[L_front_hand01_02]
13 71.020905 -0.000179 0.000030 0.000315 -0.002326 -105.422302 71.020905
14 71.020905 -0.000179 0.000030 0.000315 -0.002326 -105.444061 71.020905
[L_front_hand02_02]
13 71.020927 -0.000119 0.000060 0.000315 -0.002326 -105.422302 71.020927
14 71.020927 -0.000119 0.000060 0.000315 -0.002326 -105.444061 71.020927
[L_front_hand03_02]
13 71.020905 -0.000060 0.000060 0.000315 -0.002326 -105.422302 71.020905
14 71.020905 -0.000060 0.000060 0.000315 -0.002326 -105.444061 71.020905
[R_forearm]
13 322.776428 -0.000060 0.000030 0.201095 0.068205 -109.794945 322.776428
14 322.776428 -0.000060 0.000030 0.201071 0.068274 -109.834229 322.776428
[R_front_hand]
13 238.847015 -0.006795 2.210259 -2.635298 -10.645460 -26.312500 238.857239
14 238.847015 -0.006795 2.210259 -2.635298 -10.645461 -26.312506 238.857239
[R_weapon_bone]
13 155.664093 0.002503 -0.000030 0.003487 0.001180 -90.988930 155.664078
14 155.664093 0.002503 -0.000030 0.003487 0.001180 -90.988930 155.664078
[R_front_hand01_01]
13 87.624611 14.231146 22.918642 -139.165207 -53.267754 43.295242 91.683487
14 87.624611 14.231146 22.918642 -141.083969 -54.436916 45.672474 91.683487
[R_front_hand02_01]
13 89.356956 14.367283 -19.491137 139.980438 51.699215 45.970734 92.579636
14 89.356956 14.367283 -19.491137 141.812988 52.852680 48.289921 92.579636
[R_front_hand03_01]
13 87.286232 -22.307278 -0.143439 0.071045 -0.448771 -63.677063 90.091743
14 87.286232 -22.307278 -0.143439 0.082367 -0.444902 -65.508438 90.091743
[R_front_hand01_02]
13 71.020905 0.000060 0.000119 0.002323 -0.000334 106.381714 71.020905
14 71.020905 0.000060 0.000119 0.002323 -0.000334 106.381714 71.020905
[R_front_hand02_02]
13 71.020844 -0.000030 -0.000119 0.002323 -0.000334 106.381714 71.020836
14 71.020844 -0.000030 -0.000119 0.002323 -0.000334 106.381714 71.020836
[R_front_hand03_02]
13 71.020905 0.000000 0.000030 0.002323 -0.000334 106.381714 71.020905
14 71.020905 0.000000 0.000030 0.002323 -0.000334 106.381714 71.020905
[null_rope01_connect]
13 328.732483 0.000000 -0.000238 161.931641 -7.057256 31.616314 328.732483
14 328.732483 0.000000 -0.000238 163.370804 -9.581852 26.794682 328.732483
[Rope1_Seg01]
13 0.000000 0.000000 0.000000 -70.702377 -59.098553 -164.021866 0.000000
14 0.000000 0.000000 0.000000 -53.222157 -60.557358 177.542786 0.000000
[Rope1_Seg02]
13 139.999863 -0.000179 0.000000 -2.481412 -6.007169 3.783340 139.999863
14 139.999863 -0.000179 0.000000 -2.388143 -6.968066 3.988633 139.999863
[Rope1_Seg03]
13 139.999924 0.000060 -0.000060 -8.729338 -11.790144 6.871024 139.999924
14 139.999924 0.000060 -0.000060 -7.989027 -13.276851 7.059868 139.999924
[Rope1_Seg04]
13 139.999924 -0.000060 -0.000119 -121.625313 -25.703793 19.129633 139.999924
14 139.999924 -0.000060 -0.000119 -55.436001 -24.249136 17.709660 139.999924
[Rope1_Seg05]
13 139.999832 0.000119 -0.000060 -22.482027 8.703966 -31.770578 139.999832
14 139.999832 0.000119 -0.000060 -74.869019 -21.440460 -15.526671 139.999832
[Rope1_Seg06]
13 139.999954 0.000119 -0.000060 7.784589 39.312206 -12.052920 139.999954
14 139.999954 0.000119 -0.000060 -1.556963 43.662998 -30.774555 139.999954
[Rope1_Seg07]
13 139.999985 0.000060 0.000000 -0.938679 13.980541 -10.131805 139.999985
14 139.999985 0.000060 0.000000 -3.607242 20.890417 -19.153599 139.999985
[Rope1_Seg09]
13 121.602913 0.000119 -0.000089 -89.793175 -1.359789 0.847147 121.602913
14 121.602913 0.000119 -0.000089 -89.793175 -1.359789 0.847147 121.602913
[L_mid_hand01]
13 103.859421 1.038730 8.195221 109.630608 -42.428204 -14.062104 104.187431
14 103.859421 1.038730 8.195221 110.331230 -44.470772 -15.085358 104.187431
[L_mid_hand02]
13 105.572853 -4.139662 -10.864139 -147.734787 32.524982 -39.820675 106.211075
14 105.572853 -4.139662 -10.864139 -148.937698 33.668652 -42.029232 106.211075
[L_mid_hand03]
13 104.641464 17.579376 -3.913581 -13.849796 12.791805 45.822666 106.179977
14 104.641464 17.579376 -3.913581 -13.360333 13.301836 47.989151 106.179977
[null_rope02_connect]
13 328.732849 0.000179 -0.000119 10.764078 -18.646393 -47.593693 328.732849
14 328.732849 0.000179 -0.000119 7.569072 -14.872454 -40.078705 328.732849
[Rope2_Seg01]
13 -0.000067 -0.000145 0.000000 -76.963524 38.792667 -173.968246 0.000160
14 -0.000066 -0.000141 0.000000 -71.156754 31.100264 -176.715881 0.000156
[Rope2_Seg02]
13 139.999741 -0.000060 -0.000119 -8.167769 -20.234098 19.816198 139.999756
14 139.999741 -0.000060 -0.000119 -6.860334 -15.293670 15.242826 139.999756
[Rope2_Seg03]
13 140.000107 0.000030 0.000000 -3.611621 -17.772686 18.351871 140.000107
14 140.000107 0.000030 0.000000 -4.862497 -18.654079 17.803291 140.000107
[Rope2_Seg04]
13 139.999802 0.000000 -0.000060 0.511498 -8.194036 9.252365 139.999802
14 139.999802 0.000000 -0.000060 -0.541261 -11.281098 13.239263 139.999802
[Rope2_Seg05]
13 139.999985 -0.000060 0.000119 -1.671789 -12.472606 2.607693 139.999985
14 139.999985 -0.000060 0.000119 -0.793900 -10.845681 3.719218 139.999985
[Rope2_Seg06]
13 139.999893 -0.000030 -0.000119 -13.825286 -27.391293 -0.976506 139.999893
14 139.999893 -0.000030 -0.000119 -7.456232 -21.289625 -1.237514 139.999893
[Rope2_Seg07]
13 139.999893 0.000060 -0.000060 -30.369623 -20.780346 -4.998844 139.999893
14 139.999893 0.000060 -0.000060 -17.927977 -21.231823 -3.448572 139.999893
[Rope2_Seg09]
13 121.338966 0.000089 -0.000060 33.793236 -1.359788 -0.847141 121.338966
14 121.338966 0.000089 -0.000060 33.793236 -1.359788 -0.847141 121.338966
[R_mid_hand01]
13 104.680779 11.144459 -10.335981 -35.659058 33.675755 40.429829 105.778534
14 104.680779 11.144459 -10.335981 -36.495319 32.739510 38.894333 105.778534
[R_mid_hand02]
13 104.070427 2.443552 8.231699 69.379761 -45.224785 15.491559 104.424065
14 104.070427 2.443552 8.231699 69.926315 -43.736984 14.713634 104.424065
[R_mid_hand03]
13 106.028137 -11.221827 -5.996406 -170.548004 12.734514 -50.222630 106.788818
14 106.028137 -11.221827 -5.996406 -170.196442 12.469421 -48.616371 106.788818
[spine02]
13 129.756927 0.001550 0.000119 0.530894 -4.024815 -15.394447 129.756927
14 129.756927 0.001550 0.000119 0.535369 -4.024217 -15.452036 129.756927
[spine03]
13 78.614059 0.081742 -4.899003 1.999386 3.782245 18.017288 78.766594
14 78.614052 0.081742 -4.899002 2.001805 3.779806 18.049057 78.766586
[pelvis]
13 169.435242 0.051022 0.000000 6.056187 -0.850542 1.690194 169.435257
14 169.435242 0.051022 0.000000 6.324979 -0.790977 0.091702 169.435257
[null_rope03_connect]
13 -1.257226 -2.466202 137.391083 171.419662 20.773279 72.367088 137.418976
14 -1.257226 -2.466202 137.391083 170.524689 19.516787 68.589966 137.418976
[null_rope04_connect]
13 -1.259640 -2.480268 -137.844437 171.419662 20.773279 72.367088 137.872513
14 -1.259640 -2.480268 -137.844437 170.524689 19.516787 68.589966 137.872513
[Rope3_Seg01]
13 0.000000 0.000000 0.000000 -117.533539 33.399693 129.856323 0.000000
14 0.000000 0.000000 0.000000 -119.322342 36.325310 126.331917 0.000000
[Rope3_Seg02]
13 139.999924 -0.000119 0.000060 0.981752 -8.599194 17.259024 139.999924
14 139.999924 -0.000119 0.000060 -0.282509 -7.617875 18.288671 139.999924
[Rope3_Seg03]
13 139.999924 -0.000119 0.000119 -4.096266 -9.941912 25.079000 139.999924
14 139.999924 -0.000119 0.000119 -6.462855 -9.021751 26.538828 139.999924
[Rope3_Seg04]
13 139.999924 0.000119 0.000000 -5.721122 -4.963944 18.251463 139.999924
14 139.999924 0.000119 0.000000 -7.959688 -4.932789 18.794813 139.999924
[Rope3_Seg05]
13 139.999924 -0.000238 0.000060 -8.545592 -11.065070 11.584123 139.999924
14 139.999924 -0.000238 0.000060 -10.959008 -12.012966 10.966540 139.999924
[Rope3_Seg06]
13 139.999893 -0.000119 -0.000060 -15.132238 -25.969469 13.707926 139.999893
14 139.999893 -0.000119 -0.000060 -15.640373 -26.946684 10.069484 139.999893
[Rope3_Seg07]
13 139.999771 0.000060 -0.000119 -6.555841 -21.790253 6.250362 139.999771
14 139.999771 0.000060 -0.000119 -5.404086 -21.098030 2.862166 139.999771
[Rope3_Seg08]
13 139.999985 -0.000060 0.000000 -1.092443 -9.472375 2.062535 139.999985
14 139.999985 -0.000060 0.000000 -0.718264 -9.237322 0.803987 139.999985
[Rope3_Seg09]
13 90.185997 -0.000179 -0.000060 89.793228 -1.359877 -0.847183 90.185997
14 90.185997 -0.000179 -0.000060 89.793228 -1.359877 -0.847183 90.185997
[R_rear_hand01]
13 103.366196 -6.073594 -10.757982 -165.364609 20.073742 -42.141056 104.101845
14 103.366196 -6.073594 -10.757982 -164.915878 19.747877 -40.821396 104.101845
[R_rear_hand02]
13 100.509819 12.039542 -7.992327 -30.084070 25.665682 39.802124 101.543350
14 100.509819 12.039542 -7.992327 -30.611036 25.017700 38.577408 101.543350
[R_rear_hand03]
13 101.539970 5.215704 5.435467 82.244064 -42.772606 9.150358 101.819031
14 101.539970 5.215704 5.435467 82.396393 -41.501793 8.918388 101.819031
[Rope4_Seg01]
13 0.000010 0.000029 -0.000116 28.740170 -9.835054 132.504883 0.000120
14 0.000010 0.000028 -0.000113 28.921001 -8.567612 133.672974 0.000117
[Rope4_Seg02]
13 139.999985 0.000060 0.000119 -30.437160 -22.102379 28.053709 139.999985
14 139.999985 0.000060 0.000119 -31.843557 -23.112047 28.329527 139.999985
[Rope4_Seg03]
13 139.999924 0.000000 -0.000238 -19.578182 -32.208241 28.689808 139.999924
14 139.999924 0.000000 -0.000238 -16.420908 -29.119965 23.278727 139.999924
[Rope4_Seg04]
13 139.999985 0.000000 0.000119 3.028639 -33.405361 -1.206830 139.999985
14 139.999985 0.000000 0.000119 2.171145 -33.670940 -0.355572 139.999985
[Rope4_Seg05]
13 139.999802 -0.000060 -0.000119 15.500121 -36.461761 -7.846015 139.999802
14 139.999802 -0.000060 -0.000119 24.160093 -44.438576 -6.937041 139.999802
[Rope4_Seg06]
13 139.999924 0.000000 0.000060 14.563456 -10.981874 0.998441 139.999924
14 139.999924 0.000000 0.000060 23.945028 -11.997648 3.453486 139.999924
[Rope4_Seg07]
13 139.999802 0.000000 0.000000 11.646322 -4.619956 1.819055 139.999802
14 139.999802 0.000000 0.000000 15.010297 -3.742942 3.342220 139.999802
[Rope4_Seg08]
13 139.999924 0.000000 0.000119 6.437682 -2.225167 1.452062 139.999924
14 139.999924 0.000000 0.000119 7.067646 -1.437523 2.197513 139.999924
[Rope4_Seg09]
13 90.185791 0.000060 0.000060 -135.617828 2.228885 0.850567 90.185791
14 90.185791 0.000060 0.000060 -135.617828 2.228885 0.850567 90.185791
[L_rear_hand01]
13 101.696655 -8.392275 -7.654577 -28.796082 -27.129267 137.298477 102.329041
14 101.696655 -8.392275 -7.654577 -27.588621 -28.361078 134.712112 102.329041
[L_rear_hand02]
13 102.726799 -1.568258 5.773216 81.840157 45.725384 170.277420 102.900848
14 102.726799 -1.568258 5.773216 81.431328 48.300419 169.720108 102.900848
[L_rear_hand03]
13 104.552910 9.721220 -10.420293 -166.442245 -20.805418 -134.771164 105.519653
14 104.552910 9.721220 -10.420293 -167.421631 -21.393101 -132.057724 105.519653
